<svg version="1.1" id="Layer_1" xmlns="http://www.w3.org/2000/svg" xmlns:xlink="http://www.w3.org/1999/xlink" x="0px" y="0px"
	 width="100%" viewBox="0 0 1024 448" enable-background="new 0 0 1024 448" xml:space="preserve">
<path fill="#000000" opacity="1.000000" stroke="none" 
	d="
M1025.000000,169.545898 
	C1017.723572,168.647766 1010.338196,169.010635 1003.075684,169.455124 
	C974.883362,171.180588 947.957031,165.428665 921.054993,157.721741 
	C894.443115,150.097961 869.397400,139.335464 845.827454,125.013306 
	C835.615234,118.807869 828.164307,109.417969 819.662415,101.242912 
	C806.491089,88.578163 794.791504,74.446014 780.225037,63.145618 
	C770.133179,55.316570 758.412720,52.831760 746.510437,50.456352 
	C741.136414,49.383827 735.636536,48.947342 730.198730,48.186794 
	C726.707275,47.698463 724.104919,45.979542 722.536133,42.771729 
	C722.981079,42.352299 723.239197,41.925789 723.431946,41.953541 
	C735.790161,43.732937 748.372498,42.384567 760.706604,45.182552 
	C777.713196,49.040501 790.673828,59.188927 802.670837,70.917046 
	C814.683716,82.660660 826.323730,94.784653 838.252930,106.615112 
	C850.429199,118.690590 865.413330,126.356476 881.136597,132.453033 
	C892.147034,136.722260 902.416260,142.807159 913.993286,145.662491 
	C933.037170,150.359482 951.713135,156.719864 971.279602,159.055130 
	C985.700195,160.776260 1000.222961,159.643723 1014.702148,159.638107 
	C1017.863342,159.636871 1021.024475,159.739670 1024.592773,159.897278 
	C1025.000000,163.030594 1025.000000,166.061188 1025.000000,169.545898 
z"/>
<path fill="#000000" opacity="1.000000" stroke="none" 
	d="
M132.531342,1.000000 
	C137.217758,4.614333 142.727158,5.021885 147.667114,6.785141 
	C174.624283,16.407175 202.313171,23.980366 228.857376,34.711754 
	C271.432159,51.924019 313.794800,69.667786 356.104065,87.525780 
	C367.434875,92.308319 378.246185,98.321342 389.297974,103.765488 
	C392.139618,105.165314 393.563263,107.172318 392.598450,110.053780 
	C369.620605,103.602013 348.590332,92.876236 326.611664,84.519203 
	C291.145599,71.033844 256.401703,55.653744 220.972168,42.066402 
	C198.774872,33.553669 175.870316,26.889099 153.302643,19.336872 
	C137.676605,14.107642 122.079185,8.792548 106.484299,3.470924 
	C105.088867,2.994747 103.806320,2.187720 102.235672,1.267172 
	C112.020897,1.000000 122.041786,1.000000 132.531342,1.000000 
z"/>
<path fill="#000000" opacity="1.000000" stroke="none" 
	d="
M1.000000,193.458069 
	C14.110690,192.399826 27.036758,190.258499 40.006657,188.434280 
	C52.500282,186.677048 65.023422,185.301498 77.645599,184.511765 
	C98.447777,183.210266 118.849846,179.525024 138.137177,171.133041 
	C148.341919,166.692902 149.067261,164.724609 145.986191,153.902039 
	C144.134125,147.396454 140.040314,142.365479 135.798431,137.510727 
	C128.760559,129.456009 120.529648,122.693680 111.763763,116.533234 
	C94.234886,104.214386 79.613525,89.158310 69.178093,70.276245 
	C67.710953,67.621582 66.747833,64.805283 66.273529,61.817921 
	C65.917435,59.575047 66.633148,57.996140 68.504517,57.365181 
	C74.325310,68.964378 82.848732,77.957100 91.010353,87.389824 
	C100.795891,98.699356 113.561844,105.978233 124.881607,115.197235 
	C135.855820,124.134850 146.785904,133.396652 152.830643,146.637939 
	C155.477280,152.435562 157.922256,158.704468 156.750229,165.384460 
	C155.547745,172.237930 150.031189,175.483566 144.554855,178.362411 
	C127.930351,187.101822 109.819176,191.363129 91.410973,192.927917 
	C66.506210,195.044937 41.773975,198.200150 17.071407,201.794189 
	C11.972541,202.536026 6.731620,202.169434 1.374149,203.891281 
	C1.000000,200.638718 1.000000,197.277420 1.000000,193.458069 
z"/>
<path fill="#000000" opacity="1.000000" stroke="none" 
	d="
M1.000000,434.458069 
	C10.322970,430.849335 17.907135,424.957520 25.339241,418.757080 
	C40.093224,406.448212 52.661205,392.379364 64.172302,376.850708 
	C78.275063,357.825897 90.423790,337.636658 103.072990,317.752075 
	C108.899185,308.593292 112.181000,298.017395 114.888855,287.247223 
	C118.163300,274.223572 122.715302,261.502502 126.032570,248.448425 
	C126.342949,247.227020 126.653244,245.796310 128.240799,245.354889 
	C129.816925,245.457794 130.230392,246.713303 130.011566,247.814514 
	C128.554382,255.147842 129.868500,262.675507 127.566734,270.054260 
	C124.015907,281.437164 121.627663,293.177094 118.415306,304.673126 
	C116.073608,313.053284 111.990143,320.722198 107.332298,328.041962 
	C98.053658,342.623260 88.779877,357.209595 79.315598,371.670471 
	C63.913746,395.203644 46.003849,416.507080 23.154886,433.242859 
	C16.559139,438.073944 9.252343,441.739319 1.359670,444.960693 
	C1.000000,441.638702 1.000000,438.277435 1.000000,434.458069 
z"/>
<path fill="#000000" opacity="1.000000" stroke="none" 
	d="
M305.531616,1.000000 
	C309.969604,4.939292 315.011169,7.212126 319.866699,9.708835 
	C346.847473,23.582247 375.051361,34.700249 403.062378,46.224087 
	C415.852905,51.486149 428.338715,57.362614 440.802734,63.305176 
	C446.694000,66.114006 452.883728,68.063515 458.981812,70.273979 
	C463.299774,71.839172 466.935455,74.411812 470.530884,77.118279 
	C472.848358,78.862740 473.778259,80.870888 471.550720,83.609512 
	C462.879272,74.884010 450.157684,76.772873 440.143158,71.495811 
	C438.837341,70.807724 437.255402,70.662041 435.898590,70.049652 
	C403.123108,55.256390 369.386871,42.751579 336.462280,28.322281 
	C319.079926,20.704412 302.219574,12.029782 286.152161,1.309402 
	C292.354401,1.000000 298.708801,1.000000 305.531616,1.000000 
z"/>
<path fill="#000000" opacity="1.000000" stroke="none" 
	d="
M1025.000000,242.545898 
	C998.357605,239.521759 971.639099,236.728760 945.044250,232.750229 
	C923.565552,229.537064 902.204224,224.585907 880.245239,225.242218 
	C876.894226,225.342377 874.327515,223.888397 872.491272,220.533890 
	C880.118286,222.577911 886.722168,217.855606 894.296448,218.374954 
	C924.357910,220.436203 954.007324,225.636322 983.860229,229.252411 
	C997.227661,230.871613 1010.681702,231.775848 1024.548218,233.002258 
	C1025.000000,236.030594 1025.000000,239.061188 1025.000000,242.545898 
z"/>
<path fill="#000000" opacity="1.000000" stroke="none" 
	d="
M694.531372,1.000000 
	C686.305603,5.979703 676.666260,8.692164 667.442810,12.388091 
	C647.848938,20.239552 627.956665,27.377314 608.563232,35.686493 
	C596.674866,40.780113 585.461243,47.458832 573.996643,53.524139 
	C571.128296,55.041649 568.540588,55.861107 565.977417,52.904839 
	C575.261902,48.021275 582.531738,40.543964 591.628967,35.364346 
	C605.310608,27.574421 619.919800,22.184908 634.186768,15.897992 
	C645.565186,10.883979 657.665283,7.591819 668.816406,1.288148 
	C677.354248,1.000000 685.708496,1.000000 694.531372,1.000000 
z"/>
<path fill="#000000" opacity="1.000000" stroke="none" 
	d="
M709.761719,396.737732 
	C730.450256,392.764313 750.755615,389.135895 771.253174,386.682037 
	C781.998474,385.395660 791.979553,381.808136 801.136780,376.156342 
	C821.701416,363.464050 836.004456,345.972961 841.086548,321.921844 
	C843.829956,308.938416 842.815979,295.695618 842.310364,282.575439 
	C842.060425,276.087524 841.707336,269.587921 841.885193,263.118408 
	C842.309143,247.698868 837.787231,233.597488 831.127625,220.014969 
	C827.311890,212.232712 824.079224,204.214523 820.774597,196.212326 
	C806.703430,162.138947 783.163269,135.299042 755.737610,111.440781 
	C743.920410,101.160728 732.922180,90.037628 722.261841,78.569145 
	C719.192810,75.267441 718.381165,71.439117 718.636780,66.878868 
	C723.369934,66.104912 727.119934,66.544472 730.321106,70.920341 
	C735.348755,77.792877 742.221802,83.031319 748.530212,88.640518 
	C774.231812,111.493568 798.833069,135.326035 817.469971,164.501114 
	C825.906189,177.707458 831.729309,192.319138 837.967529,206.676727 
	C842.602844,217.345154 847.629761,227.824524 850.349426,239.233826 
	C851.703674,244.915573 853.095398,250.518127 853.062073,256.431396 
	C852.959656,274.591949 853.004150,292.753357 852.996948,310.914429 
	C852.991394,325.113190 848.499512,337.949280 841.691772,350.259125 
	C834.679504,362.938721 824.789612,372.598328 813.069641,380.919373 
	C800.105164,390.123993 785.874268,395.354584 770.242371,397.304352 
	C749.950439,399.835388 729.904602,404.208221 709.622009,406.489685 
	C690.316711,408.661224 671.340759,413.888336 651.709900,413.108337 
	C647.105469,412.925415 642.977539,415.102081 638.516846,415.691193 
	C634.708496,416.194183 631.727905,415.264160 629.778992,412.475586 
	C642.381531,408.086426 654.942688,404.221130 668.516174,403.227783 
	C682.177795,402.227997 695.488037,397.570221 709.761719,396.737732 
z"/>
<path fill="#000000" opacity="1.000000" stroke="none" 
	d="
M252.925079,256.356628 
	C261.686249,238.639679 274.845215,225.757812 291.153503,215.486053 
	C308.009003,204.869659 326.853638,199.200302 345.204010,192.314453 
	C365.148621,184.830399 385.334015,177.838409 406.153961,173.251663 
	C425.165924,169.063232 444.617859,167.290405 463.932343,164.892517 
	C480.945282,162.780380 497.751556,159.444702 514.674438,156.882523 
	C537.696350,153.396957 560.886658,150.743881 584.252441,151.034592 
	C594.196472,151.158310 603.653259,148.018982 613.435181,147.349960 
	C627.235168,146.406113 640.077515,141.731689 653.117981,137.760147 
	C656.466003,136.740494 659.855835,136.106323 661.261292,140.641464 
	C662.306763,144.014771 660.817688,146.206055 657.639465,147.170486 
	C645.098267,150.976120 632.969727,156.268311 619.486145,156.560440 
	C614.404907,156.670532 609.285217,158.058929 604.307739,159.346466 
	C588.071045,163.546478 571.420959,160.624313 555.084412,162.430664 
	C537.280945,164.399216 519.414978,165.980713 501.811646,169.578995 
	C484.400513,173.137970 466.805267,175.654907 449.116302,177.276520 
	C415.268280,180.379471 382.663055,188.439331 351.039703,200.785522 
	C338.946838,205.506744 326.371704,209.116882 314.603394,214.513535 
	C300.113312,221.158279 285.811371,228.505157 275.331268,241.260391 
	C271.952850,245.372223 268.205383,249.190460 264.962708,253.401703 
	C261.033997,258.503876 259.524994,264.338074 261.013306,270.770294 
	C261.161957,271.412689 261.228577,272.097504 261.194366,272.755402 
	C259.905121,297.527527 268.366730,320.136932 276.392975,342.923187 
	C282.200104,359.409332 291.262878,374.121063 299.947540,389.073669 
	C301.786713,392.240173 302.439575,395.023254 298.429596,398.144714 
	C298.110168,389.936371 290.555389,387.373322 287.522797,381.673645 
	C282.228180,371.722626 275.349030,362.787689 271.090302,352.091431 
	C264.175201,334.723358 257.432709,317.372772 254.142899,298.939453 
	C251.654007,284.993713 250.470474,270.894226 252.925079,256.356628 
z"/>
<path fill="#000000" opacity="1.000000" stroke="none" 
	d="
M486.399475,378.834229 
	C467.452332,369.965057 452.961334,356.362366 439.423279,341.189911 
	C430.039764,330.673553 421.676239,319.627045 414.846863,307.393585 
	C409.550751,297.906616 405.412384,287.928436 403.984863,277.027313 
	C403.812988,275.714661 403.774841,274.358093 403.886688,273.039886 
	C404.173431,269.660339 404.982056,266.711029 409.367218,266.851288 
	C413.453735,266.981964 413.298096,269.793121 413.653412,272.765808 
	C415.352661,286.981689 421.579010,299.471771 429.176422,311.298950 
	C440.195862,328.453278 453.535431,343.548096 468.771362,357.205933 
	C477.236267,364.794037 486.853973,370.090576 496.471466,375.642090 
	C501.860107,378.752563 503.582794,380.858368 504.170441,386.873260 
	C499.420776,381.567810 492.688110,381.289429 486.399475,378.834229 
z"/>
<path fill="#000000" opacity="1.000000" stroke="none" 
	d="
M209.958633,82.683525 
	C209.329849,80.286270 208.358261,78.215469 210.289490,75.917267 
	C216.379913,82.711723 222.578232,89.245071 229.893631,94.518105 
	C237.966125,100.336876 246.073990,106.150719 256.487976,107.146263 
	C258.924866,107.379219 261.187225,108.394905 261.007477,111.434593 
	C260.795959,115.011345 257.859772,115.085976 255.449112,114.895256 
	C244.578827,114.035248 235.729675,108.729927 227.303925,102.186386 
	C220.363358,96.796265 214.983368,90.188698 209.958633,82.683525 
z"/>
<path fill="#000000" opacity="1.000000" stroke="none" 
	d="
M699.116089,298.161224 
	C689.609985,295.014587 679.567749,294.147766 672.213135,286.879974 
	C679.835999,288.135986 687.532654,287.282837 694.898071,289.398621 
	C698.556641,290.449615 702.368835,290.954224 706.064575,291.891418 
	C708.511597,292.511963 712.057617,292.482788 711.649109,296.225159 
	C711.201416,300.325592 707.601929,299.390930 704.909729,299.290436 
	C703.106506,299.223145 701.323364,298.618500 699.116089,298.161224 
z"/>
</svg>